<?xml version="1.0" encoding="UTF-8"?>
<svg xmlns="http://www.w3.org/2000/svg" width="951" height="440" viewBox="0 0 951 440">
<rect x="0" y="0" width="100%" height="100%" fill="white"/>
<line x1="60.000" y1="380.000" x2="198.564" y2="300.000" stroke="blue" stroke-width="4" stroke-linecap="round" />
<line x1="198.564" y1="300.000" x2="337.128" y2="380.000" stroke="red" stroke-width="4" stroke-linecap="round" />
<line x1="198.564" y1="300.000" x2="198.564" y2="140.000" stroke="green" stroke-width="4" stroke-linecap="round" />
<line x1="198.564" y1="140.000" x2="337.128" y2="60.000" stroke="blue" stroke-width="4" stroke-linecap="round" />
<line x1="337.128" y1="60.000" x2="475.692" y2="140.000" stroke="red" stroke-width="4" stroke-linecap="round" />
<line x1="337.128" y1="380.000" x2="475.692" y2="300.000" stroke="blue" stroke-width="4" stroke-linecap="round" />
<line x1="475.692" y1="300.000" x2="614.256" y2="380.000" stroke="red" stroke-width="4" stroke-linecap="round" />
<line x1="475.692" y1="300.000" x2="475.692" y2="140.000" stroke="green" stroke-width="4" stroke-linecap="round" />
<line x1="475.692" y1="140.000" x2="614.256" y2="60.000" stroke="blue" stroke-width="4" stroke-linecap="round" />
<line x1="614.256" y1="60.000" x2="752.820" y2="140.000" stroke="red" stroke-width="4" stroke-linecap="round" />
<line x1="614.256" y1="380.000" x2="752.820" y2="300.000" stroke="blue" stroke-width="4" stroke-linecap="round" />
<line x1="752.820" y1="300.000" x2="752.820" y2="140.000" stroke="green" stroke-width="4" stroke-linecap="round" />
<line x1="752.820" y1="140.000" x2="891.384" y2="60.000" stroke="blue" stroke-width="4" stroke-linecap="round" />
<circle cx="60.000" cy="380.000" r="14.000" fill="white" stroke="black" stroke-width="3"/>
<circle cx="198.564" cy="300.000" r="14.000" fill="white" stroke="black" stroke-width="3"/>
<circle cx="198.564" cy="140.000" r="14.000" fill="white" stroke="black" stroke-width="3"/>
<circle cx="337.128" cy="60.000" r="14.000" fill="white" stroke="black" stroke-width="3"/>
<circle cx="337.128" cy="380.000" r="14.000" fill="white" stroke="black" stroke-width="3"/>
<circle cx="475.692" cy="300.000" r="14.000" fill="white" stroke="black" stroke-width="3"/>
<circle cx="475.692" cy="140.000" r="14.000" fill="white" stroke="black" stroke-width="3"/>
<circle cx="614.256" cy="60.000" r="14.000" fill="white" stroke="black" stroke-width="3"/>
<circle cx="614.256" cy="380.000" r="14.000" fill="white" stroke="black" stroke-width="3"/>
<circle cx="752.820" cy="300.000" r="14.000" fill="white" stroke="black" stroke-width="3"/>
<circle cx="752.820" cy="140.000" r="14.000" fill="white" stroke="black" stroke-width="3"/>
<circle cx="891.384" cy="60.000" r="14.000" fill="white" stroke="black" stroke-width="3"/>
<text x="60.000" y="380.000"
font-family="monospace"
font-size="15"
font-weight="bold"
text-anchor="middle"
dominant-baseline="middle"
fill="black">1</text>
<text x="198.564" y="300.000"
font-family="monospace"
font-size="15"
font-weight="bold"
text-anchor="middle"
dominant-baseline="middle"
fill="black">2</text>
<text x="198.564" y="140.000"
font-family="monospace"
font-size="15"
font-weight="bold"
text-anchor="middle"
dominant-baseline="middle"
fill="black">3</text>
<text x="337.128" y="60.000"
font-family="monospace"
font-size="15"
font-weight="bold"
text-anchor="middle"
dominant-baseline="middle"
fill="black">4</text>
<text x="337.128" y="380.000"
font-family="monospace"
font-size="15"
font-weight="bold"
text-anchor="middle"
dominant-baseline="middle"
fill="black">5</text>
<text x="475.692" y="300.000"
font-family="monospace"
font-size="15"
font-weight="bold"
text-anchor="middle"
dominant-baseline="middle"
fill="black">6</text>
<text x="475.692" y="140.000"
font-family="monospace"
font-size="15"
font-weight="bold"
text-anchor="middle"
dominant-baseline="middle"
fill="black">7</text>
<text x="614.256" y="60.000"
font-family="monospace"
font-size="15"
font-weight="bold"
text-anchor="middle"
dominant-baseline="middle"
fill="black">8</text>
<text x="614.256" y="380.000"
font-family="monospace"
font-size="15"
font-weight="bold"
text-anchor="middle"
dominant-baseline="middle"
fill="black">9</text>
<text x="752.820" y="300.000"
font-family="monospace"
font-size="15"
font-weight="bold"
text-anchor="middle"
dominant-baseline="middle"
fill="black">10</text>
<text x="752.820" y="140.000"
font-family="monospace"
font-size="15"
font-weight="bold"
text-anchor="middle"
dominant-baseline="middle"
fill="black">11</text>
<text x="891.384" y="60.000"
font-family="monospace"
font-size="15"
font-weight="bold"
text-anchor="middle"
dominant-baseline="middle"
fill="black">12</text>
<line x1="60.0" y1="80.0" x2="100.0" y2="80.0"
stroke="blue" stroke-width="4" stroke-linecap="round"/><text x="115.0" y="80.0" font-family="monospace"
font-size="18" dominant-baseline="middle">x bond</text>
<line x1="60.0" y1="115.0" x2="100.0" y2="115.0"
stroke="red" stroke-width="4" stroke-linecap="round"/><text x="115.0" y="115.0" font-family="monospace"
font-size="18" dominant-baseline="middle">y bond</text>
<line x1="60.0" y1="150.0" x2="100.0" y2="150.0"
stroke="green" stroke-width="4" stroke-linecap="round"/><text x="115.0" y="150.0" font-family="monospace"
font-size="18" dominant-baseline="middle">z bond</text>
</svg>
