<?xml version="1.0" encoding="UTF-8"?>
<svg xmlns="http://www.w3.org/2000/svg" width="2891" height="3800" viewBox="0 0 2891 3800">
<rect x="0" y="0" width="100%" height="100%" fill="white"/>
<line x1="60.000" y1="3740.000" x2="198.564" y2="3660.000" stroke="blue" stroke-width="4" stroke-linecap="round" />
<line x1="198.564" y1="3660.000" x2="337.128" y2="3740.000" stroke="red" stroke-width="4" stroke-linecap="round" />
<line x1="198.564" y1="3660.000" x2="198.564" y2="3500.000" stroke="green" stroke-width="4" stroke-linecap="round" />
<line x1="198.564" y1="3500.000" x2="337.128" y2="3420.000" stroke="blue" stroke-width="4" stroke-linecap="round" />
<line x1="337.128" y1="3420.000" x2="475.692" y2="3500.000" stroke="red" stroke-width="4" stroke-linecap="round" />
<line x1="337.128" y1="3420.000" x2="337.128" y2="3260.000" stroke="green" stroke-width="4" stroke-linecap="round" />
<line x1="337.128" y1="3260.000" x2="475.692" y2="3180.000" stroke="blue" stroke-width="4" stroke-linecap="round" />
<line x1="475.692" y1="3180.000" x2="614.256" y2="3260.000" stroke="red" stroke-width="4" stroke-linecap="round" />
<line x1="475.692" y1="3180.000" x2="475.692" y2="3020.000" stroke="green" stroke-width="4" stroke-linecap="round" />
<line x1="475.692" y1="3020.000" x2="614.256" y2="2940.000" stroke="blue" stroke-width="4" stroke-linecap="round" />
<line x1="614.256" y1="2940.000" x2="752.820" y2="3020.000" stroke="red" stroke-width="4" stroke-linecap="round" />
<line x1="614.256" y1="2940.000" x2="614.256" y2="2780.000" stroke="green" stroke-width="4" stroke-linecap="round" />
<line x1="614.256" y1="2780.000" x2="752.820" y2="2700.000" stroke="blue" stroke-width="4" stroke-linecap="round" />
<line x1="752.820" y1="2700.000" x2="891.384" y2="2780.000" stroke="red" stroke-width="4" stroke-linecap="round" />
<line x1="752.820" y1="2700.000" x2="752.820" y2="2540.000" stroke="green" stroke-width="4" stroke-linecap="round" />
<line x1="752.820" y1="2540.000" x2="891.384" y2="2460.000" stroke="blue" stroke-width="4" stroke-linecap="round" />
<line x1="891.384" y1="2460.000" x2="1029.948" y2="2540.000" stroke="red" stroke-width="4" stroke-linecap="round" />
<line x1="891.384" y1="2460.000" x2="891.384" y2="2300.000" stroke="green" stroke-width="4" stroke-linecap="round" />
<line x1="891.384" y1="2300.000" x2="1029.948" y2="2220.000" stroke="blue" stroke-width="4" stroke-linecap="round" />
<line x1="1029.948" y1="2220.000" x2="1168.513" y2="2300.000" stroke="red" stroke-width="4" stroke-linecap="round" />
<line x1="1029.948" y1="2220.000" x2="1029.948" y2="2060.000" stroke="green" stroke-width="4" stroke-linecap="round" />
<line x1="1029.948" y1="2060.000" x2="1168.513" y2="1980.000" stroke="blue" stroke-width="4" stroke-linecap="round" />
<line x1="1168.513" y1="1980.000" x2="1307.077" y2="2060.000" stroke="red" stroke-width="4" stroke-linecap="round" />
<line x1="1168.513" y1="1980.000" x2="1168.513" y2="1820.000" stroke="green" stroke-width="4" stroke-linecap="round" />
<line x1="1168.513" y1="1820.000" x2="1307.077" y2="1740.000" stroke="blue" stroke-width="4" stroke-linecap="round" />
<line x1="1307.077" y1="1740.000" x2="1445.641" y2="1820.000" stroke="red" stroke-width="4" stroke-linecap="round" />
<line x1="1307.077" y1="1740.000" x2="1307.077" y2="1580.000" stroke="green" stroke-width="4" stroke-linecap="round" />
<line x1="1307.077" y1="1580.000" x2="1445.641" y2="1500.000" stroke="blue" stroke-width="4" stroke-linecap="round" />
<line x1="1445.641" y1="1500.000" x2="1584.205" y2="1580.000" stroke="red" stroke-width="4" stroke-linecap="round" />
<line x1="1445.641" y1="1500.000" x2="1445.641" y2="1340.000" stroke="green" stroke-width="4" stroke-linecap="round" />
<line x1="1445.641" y1="1340.000" x2="1584.205" y2="1260.000" stroke="blue" stroke-width="4" stroke-linecap="round" />
<line x1="1584.205" y1="1260.000" x2="1722.769" y2="1340.000" stroke="red" stroke-width="4" stroke-linecap="round" />
<line x1="1584.205" y1="1260.000" x2="1584.205" y2="1100.000" stroke="green" stroke-width="4" stroke-linecap="round" />
<line x1="1584.205" y1="1100.000" x2="1722.769" y2="1020.000" stroke="blue" stroke-width="4" stroke-linecap="round" />
<line x1="1722.769" y1="1020.000" x2="1861.333" y2="1100.000" stroke="red" stroke-width="4" stroke-linecap="round" />
<line x1="1722.769" y1="1020.000" x2="1722.769" y2="860.000" stroke="green" stroke-width="4" stroke-linecap="round" />
<line x1="1722.769" y1="860.000" x2="1861.333" y2="780.000" stroke="blue" stroke-width="4" stroke-linecap="round" />
<line x1="1861.333" y1="780.000" x2="1999.897" y2="860.000" stroke="red" stroke-width="4" stroke-linecap="round" />
<line x1="1861.333" y1="780.000" x2="1861.333" y2="620.000" stroke="green" stroke-width="4" stroke-linecap="round" />
<line x1="1861.333" y1="620.000" x2="1999.897" y2="540.000" stroke="blue" stroke-width="4" stroke-linecap="round" />
<line x1="1999.897" y1="540.000" x2="2138.461" y2="620.000" stroke="red" stroke-width="4" stroke-linecap="round" />
<line x1="1999.897" y1="540.000" x2="1999.897" y2="380.000" stroke="green" stroke-width="4" stroke-linecap="round" />
<line x1="1999.897" y1="380.000" x2="2138.461" y2="300.000" stroke="blue" stroke-width="4" stroke-linecap="round" />
<line x1="2138.461" y1="300.000" x2="2277.025" y2="380.000" stroke="red" stroke-width="4" stroke-linecap="round" />
<line x1="2138.461" y1="300.000" x2="2138.461" y2="140.000" stroke="green" stroke-width="4" stroke-linecap="round" />
<line x1="2138.461" y1="140.000" x2="2277.025" y2="60.000" stroke="blue" stroke-width="4" stroke-linecap="round" />
<line x1="2277.025" y1="60.000" x2="2415.589" y2="140.000" stroke="red" stroke-width="4" stroke-linecap="round" />
<line x1="337.128" y1="3740.000" x2="475.692" y2="3660.000" stroke="blue" stroke-width="4" stroke-linecap="round" />
<line x1="475.692" y1="3660.000" x2="614.256" y2="3740.000" stroke="red" stroke-width="4" stroke-linecap="round" />
<line x1="475.692" y1="3660.000" x2="475.692" y2="3500.000" stroke="green" stroke-width="4" stroke-linecap="round" />
<line x1="475.692" y1="3500.000" x2="614.256" y2="3420.000" stroke="blue" stroke-width="4" stroke-linecap="round" />
<line x1="614.256" y1="3420.000" x2="752.820" y2="3500.000" stroke="red" stroke-width="4" stroke-linecap="round" />
<line x1="614.256" y1="3420.000" x2="614.256" y2="3260.000" stroke="green" stroke-width="4" stroke-linecap="round" />
<line x1="614.256" y1="3260.000" x2="752.820" y2="3180.000" stroke="blue" stroke-width="4" stroke-linecap="round" />
<line x1="752.820" y1="3180.000" x2="891.384" y2="3260.000" stroke="red" stroke-width="4" stroke-linecap="round" />
<line x1="752.820" y1="3180.000" x2="752.820" y2="3020.000" stroke="green" stroke-width="4" stroke-linecap="round" />
<line x1="752.820" y1="3020.000" x2="891.384" y2="2940.000" stroke="blue" stroke-width="4" stroke-linecap="round" />
<line x1="891.384" y1="2940.000" x2="1029.948" y2="3020.000" stroke="red" stroke-width="4" stroke-linecap="round" />
<line x1="891.384" y1="2940.000" x2="891.384" y2="2780.000" stroke="green" stroke-width="4" stroke-linecap="round" />
<line x1="891.384" y1="2780.000" x2="1029.948" y2="2700.000" stroke="blue" stroke-width="4" stroke-linecap="round" />
<line x1="1029.948" y1="2700.000" x2="1168.513" y2="2780.000" stroke="red" stroke-width="4" stroke-linecap="round" />
<line x1="1029.948" y1="2700.000" x2="1029.948" y2="2540.000" stroke="green" stroke-width="4" stroke-linecap="round" />
<line x1="1029.948" y1="2540.000" x2="1168.513" y2="2460.000" stroke="blue" stroke-width="4" stroke-linecap="round" />
<line x1="1168.513" y1="2460.000" x2="1307.077" y2="2540.000" stroke="red" stroke-width="4" stroke-linecap="round" />
<line x1="1168.513" y1="2460.000" x2="1168.513" y2="2300.000" stroke="green" stroke-width="4" stroke-linecap="round" />
<line x1="1168.513" y1="2300.000" x2="1307.077" y2="2220.000" stroke="blue" stroke-width="4" stroke-linecap="round" />
<line x1="1307.077" y1="2220.000" x2="1445.641" y2="2300.000" stroke="red" stroke-width="4" stroke-linecap="round" />
<line x1="1307.077" y1="2220.000" x2="1307.077" y2="2060.000" stroke="green" stroke-width="4" stroke-linecap="round" />
<line x1="1307.077" y1="2060.000" x2="1445.641" y2="1980.000" stroke="blue" stroke-width="4" stroke-linecap="round" />
<line x1="1445.641" y1="1980.000" x2="1584.205" y2="2060.000" stroke="red" stroke-width="4" stroke-linecap="round" />
<line x1="1445.641" y1="1980.000" x2="1445.641" y2="1820.000" stroke="green" stroke-width="4" stroke-linecap="round" />
<line x1="1445.641" y1="1820.000" x2="1584.205" y2="1740.000" stroke="blue" stroke-width="4" stroke-linecap="round" />
<line x1="1584.205" y1="1740.000" x2="1722.769" y2="1820.000" stroke="red" stroke-width="4" stroke-linecap="round" />
<line x1="1584.205" y1="1740.000" x2="1584.205" y2="1580.000" stroke="green" stroke-width="4" stroke-linecap="round" />
<line x1="1584.205" y1="1580.000" x2="1722.769" y2="1500.000" stroke="blue" stroke-width="4" stroke-linecap="round" />
<line x1="1722.769" y1="1500.000" x2="1861.333" y2="1580.000" stroke="red" stroke-width="4" stroke-linecap="round" />
<line x1="1722.769" y1="1500.000" x2="1722.769" y2="1340.000" stroke="green" stroke-width="4" stroke-linecap="round" />
<line x1="1722.769" y1="1340.000" x2="1861.333" y2="1260.000" stroke="blue" stroke-width="4" stroke-linecap="round" />
<line x1="1861.333" y1="1260.000" x2="1999.897" y2="1340.000" stroke="red" stroke-width="4" stroke-linecap="round" />
<line x1="1861.333" y1="1260.000" x2="1861.333" y2="1100.000" stroke="green" stroke-width="4" stroke-linecap="round" />
<line x1="1861.333" y1="1100.000" x2="1999.897" y2="1020.000" stroke="blue" stroke-width="4" stroke-linecap="round" />
<line x1="1999.897" y1="1020.000" x2="2138.461" y2="1100.000" stroke="red" stroke-width="4" stroke-linecap="round" />
<line x1="1999.897" y1="1020.000" x2="1999.897" y2="860.000" stroke="green" stroke-width="4" stroke-linecap="round" />
<line x1="1999.897" y1="860.000" x2="2138.461" y2="780.000" stroke="blue" stroke-width="4" stroke-linecap="round" />
<line x1="2138.461" y1="780.000" x2="2277.025" y2="860.000" stroke="red" stroke-width="4" stroke-linecap="round" />
<line x1="2138.461" y1="780.000" x2="2138.461" y2="620.000" stroke="green" stroke-width="4" stroke-linecap="round" />
<line x1="2138.461" y1="620.000" x2="2277.025" y2="540.000" stroke="blue" stroke-width="4" stroke-linecap="round" />
<line x1="2277.025" y1="540.000" x2="2415.589" y2="620.000" stroke="red" stroke-width="4" stroke-linecap="round" />
<line x1="2277.025" y1="540.000" x2="2277.025" y2="380.000" stroke="green" stroke-width="4" stroke-linecap="round" />
<line x1="2277.025" y1="380.000" x2="2415.589" y2="300.000" stroke="blue" stroke-width="4" stroke-linecap="round" />
<line x1="2415.589" y1="300.000" x2="2554.153" y2="380.000" stroke="red" stroke-width="4" stroke-linecap="round" />
<line x1="2415.589" y1="300.000" x2="2415.589" y2="140.000" stroke="green" stroke-width="4" stroke-linecap="round" />
<line x1="2415.589" y1="140.000" x2="2554.153" y2="60.000" stroke="blue" stroke-width="4" stroke-linecap="round" />
<line x1="2554.153" y1="60.000" x2="2692.717" y2="140.000" stroke="red" stroke-width="4" stroke-linecap="round" />
<line x1="614.256" y1="3740.000" x2="752.820" y2="3660.000" stroke="blue" stroke-width="4" stroke-linecap="round" />
<line x1="752.820" y1="3660.000" x2="752.820" y2="3500.000" stroke="green" stroke-width="4" stroke-linecap="round" />
<line x1="752.820" y1="3500.000" x2="891.384" y2="3420.000" stroke="blue" stroke-width="4" stroke-linecap="round" />
<line x1="891.384" y1="3420.000" x2="891.384" y2="3260.000" stroke="green" stroke-width="4" stroke-linecap="round" />
<line x1="891.384" y1="3260.000" x2="1029.948" y2="3180.000" stroke="blue" stroke-width="4" stroke-linecap="round" />
<line x1="1029.948" y1="3180.000" x2="1029.948" y2="3020.000" stroke="green" stroke-width="4" stroke-linecap="round" />
<line x1="1029.948" y1="3020.000" x2="1168.513" y2="2940.000" stroke="blue" stroke-width="4" stroke-linecap="round" />
<line x1="1168.513" y1="2940.000" x2="1168.513" y2="2780.000" stroke="green" stroke-width="4" stroke-linecap="round" />
<line x1="1168.513" y1="2780.000" x2="1307.077" y2="2700.000" stroke="blue" stroke-width="4" stroke-linecap="round" />
<line x1="1307.077" y1="2700.000" x2="1307.077" y2="2540.000" stroke="green" stroke-width="4" stroke-linecap="round" />
<line x1="1307.077" y1="2540.000" x2="1445.641" y2="2460.000" stroke="blue" stroke-width="4" stroke-linecap="round" />
<line x1="1445.641" y1="2460.000" x2="1445.641" y2="2300.000" stroke="green" stroke-width="4" stroke-linecap="round" />
<line x1="1445.641" y1="2300.000" x2="1584.205" y2="2220.000" stroke="blue" stroke-width="4" stroke-linecap="round" />
<line x1="1584.205" y1="2220.000" x2="1584.205" y2="2060.000" stroke="green" stroke-width="4" stroke-linecap="round" />
<line x1="1584.205" y1="2060.000" x2="1722.769" y2="1980.000" stroke="blue" stroke-width="4" stroke-linecap="round" />
<line x1="1722.769" y1="1980.000" x2="1722.769" y2="1820.000" stroke="green" stroke-width="4" stroke-linecap="round" />
<line x1="1722.769" y1="1820.000" x2="1861.333" y2="1740.000" stroke="blue" stroke-width="4" stroke-linecap="round" />
<line x1="1861.333" y1="1740.000" x2="1861.333" y2="1580.000" stroke="green" stroke-width="4" stroke-linecap="round" />
<line x1="1861.333" y1="1580.000" x2="1999.897" y2="1500.000" stroke="blue" stroke-width="4" stroke-linecap="round" />
<line x1="1999.897" y1="1500.000" x2="1999.897" y2="1340.000" stroke="green" stroke-width="4" stroke-linecap="round" />
<line x1="1999.897" y1="1340.000" x2="2138.461" y2="1260.000" stroke="blue" stroke-width="4" stroke-linecap="round" />
<line x1="2138.461" y1="1260.000" x2="2138.461" y2="1100.000" stroke="green" stroke-width="4" stroke-linecap="round" />
<line x1="2138.461" y1="1100.000" x2="2277.025" y2="1020.000" stroke="blue" stroke-width="4" stroke-linecap="round" />
<line x1="2277.025" y1="1020.000" x2="2277.025" y2="860.000" stroke="green" stroke-width="4" stroke-linecap="round" />
<line x1="2277.025" y1="860.000" x2="2415.589" y2="780.000" stroke="blue" stroke-width="4" stroke-linecap="round" />
<line x1="2415.589" y1="780.000" x2="2415.589" y2="620.000" stroke="green" stroke-width="4" stroke-linecap="round" />
<line x1="2415.589" y1="620.000" x2="2554.153" y2="540.000" stroke="blue" stroke-width="4" stroke-linecap="round" />
<line x1="2554.153" y1="540.000" x2="2554.153" y2="380.000" stroke="green" stroke-width="4" stroke-linecap="round" />
<line x1="2554.153" y1="380.000" x2="2692.717" y2="300.000" stroke="blue" stroke-width="4" stroke-linecap="round" />
<line x1="2692.717" y1="300.000" x2="2692.717" y2="140.000" stroke="green" stroke-width="4" stroke-linecap="round" />
<line x1="2692.717" y1="140.000" x2="2831.281" y2="60.000" stroke="blue" stroke-width="4" stroke-linecap="round" />
<circle cx="60.000" cy="3740.000" r="14.000" fill="white" stroke="black" stroke-width="3"/>
<circle cx="198.564" cy="3660.000" r="14.000" fill="white" stroke="black" stroke-width="3"/>
<circle cx="198.564" cy="3500.000" r="14.000" fill="white" stroke="black" stroke-width="3"/>
<circle cx="337.128" cy="3420.000" r="14.000" fill="white" stroke="black" stroke-width="3"/>
<circle cx="337.128" cy="3260.000" r="14.000" fill="white" stroke="black" stroke-width="3"/>
<circle cx="475.692" cy="3180.000" r="14.000" fill="white" stroke="black" stroke-width="3"/>
<circle cx="475.692" cy="3020.000" r="14.000" fill="white" stroke="black" stroke-width="3"/>
<circle cx="614.256" cy="2940.000" r="14.000" fill="white" stroke="black" stroke-width="3"/>
<circle cx="614.256" cy="2780.000" r="14.000" fill="white" stroke="black" stroke-width="3"/>
<circle cx="752.820" cy="2700.000" r="14.000" fill="white" stroke="black" stroke-width="3"/>
<circle cx="752.820" cy="2540.000" r="14.000" fill="white" stroke="black" stroke-width="3"/>
<circle cx="891.384" cy="2460.000" r="14.000" fill="white" stroke="black" stroke-width="3"/>
<circle cx="891.384" cy="2300.000" r="14.000" fill="white" stroke="black" stroke-width="3"/>
<circle cx="1029.948" cy="2220.000" r="14.000" fill="white" stroke="black" stroke-width="3"/>
<circle cx="1029.948" cy="2060.000" r="14.000" fill="white" stroke="black" stroke-width="3"/>
<circle cx="1168.513" cy="1980.000" r="14.000" fill="white" stroke="black" stroke-width="3"/>
<circle cx="1168.513" cy="1820.000" r="14.000" fill="white" stroke="black" stroke-width="3"/>
<circle cx="1307.077" cy="1740.000" r="14.000" fill="white" stroke="black" stroke-width="3"/>
<circle cx="1307.077" cy="1580.000" r="14.000" fill="white" stroke="black" stroke-width="3"/>
<circle cx="1445.641" cy="1500.000" r="14.000" fill="white" stroke="black" stroke-width="3"/>
<circle cx="1445.641" cy="1340.000" r="14.000" fill="white" stroke="black" stroke-width="3"/>
<circle cx="1584.205" cy="1260.000" r="14.000" fill="white" stroke="black" stroke-width="3"/>
<circle cx="1584.205" cy="1100.000" r="14.000" fill="white" stroke="black" stroke-width="3"/>
<circle cx="1722.769" cy="1020.000" r="14.000" fill="white" stroke="black" stroke-width="3"/>
<circle cx="1722.769" cy="860.000" r="14.000" fill="white" stroke="black" stroke-width="3"/>
<circle cx="1861.333" cy="780.000" r="14.000" fill="white" stroke="black" stroke-width="3"/>
<circle cx="1861.333" cy="620.000" r="14.000" fill="white" stroke="black" stroke-width="3"/>
<circle cx="1999.897" cy="540.000" r="14.000" fill="white" stroke="black" stroke-width="3"/>
<circle cx="1999.897" cy="380.000" r="14.000" fill="white" stroke="black" stroke-width="3"/>
<circle cx="2138.461" cy="300.000" r="14.000" fill="white" stroke="black" stroke-width="3"/>
<circle cx="2138.461" cy="140.000" r="14.000" fill="white" stroke="black" stroke-width="3"/>
<circle cx="2277.025" cy="60.000" r="14.000" fill="white" stroke="black" stroke-width="3"/>
<circle cx="337.128" cy="3740.000" r="14.000" fill="white" stroke="black" stroke-width="3"/>
<circle cx="475.692" cy="3660.000" r="14.000" fill="white" stroke="black" stroke-width="3"/>
<circle cx="475.692" cy="3500.000" r="14.000" fill="white" stroke="black" stroke-width="3"/>
<circle cx="614.256" cy="3420.000" r="14.000" fill="white" stroke="black" stroke-width="3"/>
<circle cx="614.256" cy="3260.000" r="14.000" fill="white" stroke="black" stroke-width="3"/>
<circle cx="752.820" cy="3180.000" r="14.000" fill="white" stroke="black" stroke-width="3"/>
<circle cx="752.820" cy="3020.000" r="14.000" fill="white" stroke="black" stroke-width="3"/>
<circle cx="891.384" cy="2940.000" r="14.000" fill="white" stroke="black" stroke-width="3"/>
<circle cx="891.384" cy="2780.000" r="14.000" fill="white" stroke="black" stroke-width="3"/>
<circle cx="1029.948" cy="2700.000" r="14.000" fill="white" stroke="black" stroke-width="3"/>
<circle cx="1029.948" cy="2540.000" r="14.000" fill="white" stroke="black" stroke-width="3"/>
<circle cx="1168.513" cy="2460.000" r="14.000" fill="white" stroke="black" stroke-width="3"/>
<circle cx="1168.513" cy="2300.000" r="14.000" fill="white" stroke="black" stroke-width="3"/>
<circle cx="1307.077" cy="2220.000" r="14.000" fill="white" stroke="black" stroke-width="3"/>
<circle cx="1307.077" cy="2060.000" r="14.000" fill="white" stroke="black" stroke-width="3"/>
<circle cx="1445.641" cy="1980.000" r="14.000" fill="white" stroke="black" stroke-width="3"/>
<circle cx="1445.641" cy="1820.000" r="14.000" fill="white" stroke="black" stroke-width="3"/>
<circle cx="1584.205" cy="1740.000" r="14.000" fill="white" stroke="black" stroke-width="3"/>
<circle cx="1584.205" cy="1580.000" r="14.000" fill="white" stroke="black" stroke-width="3"/>
<circle cx="1722.769" cy="1500.000" r="14.000" fill="white" stroke="black" stroke-width="3"/>
<circle cx="1722.769" cy="1340.000" r="14.000" fill="white" stroke="black" stroke-width="3"/>
<circle cx="1861.333" cy="1260.000" r="14.000" fill="white" stroke="black" stroke-width="3"/>
<circle cx="1861.333" cy="1100.000" r="14.000" fill="white" stroke="black" stroke-width="3"/>
<circle cx="1999.897" cy="1020.000" r="14.000" fill="white" stroke="black" stroke-width="3"/>
<circle cx="1999.897" cy="860.000" r="14.000" fill="white" stroke="black" stroke-width="3"/>
<circle cx="2138.461" cy="780.000" r="14.000" fill="white" stroke="black" stroke-width="3"/>
<circle cx="2138.461" cy="620.000" r="14.000" fill="white" stroke="black" stroke-width="3"/>
<circle cx="2277.025" cy="540.000" r="14.000" fill="white" stroke="black" stroke-width="3"/>
<circle cx="2277.025" cy="380.000" r="14.000" fill="white" stroke="black" stroke-width="3"/>
<circle cx="2415.589" cy="300.000" r="14.000" fill="white" stroke="black" stroke-width="3"/>
<circle cx="2415.589" cy="140.000" r="14.000" fill="white" stroke="black" stroke-width="3"/>
<circle cx="2554.153" cy="60.000" r="14.000" fill="white" stroke="black" stroke-width="3"/>
<circle cx="614.256" cy="3740.000" r="14.000" fill="white" stroke="black" stroke-width="3"/>
<circle cx="752.820" cy="3660.000" r="14.000" fill="white" stroke="black" stroke-width="3"/>
<circle cx="752.820" cy="3500.000" r="14.000" fill="white" stroke="black" stroke-width="3"/>
<circle cx="891.384" cy="3420.000" r="14.000" fill="white" stroke="black" stroke-width="3"/>
<circle cx="891.384" cy="3260.000" r="14.000" fill="white" stroke="black" stroke-width="3"/>
<circle cx="1029.948" cy="3180.000" r="14.000" fill="white" stroke="black" stroke-width="3"/>
<circle cx="1029.948" cy="3020.000" r="14.000" fill="white" stroke="black" stroke-width="3"/>
<circle cx="1168.513" cy="2940.000" r="14.000" fill="white" stroke="black" stroke-width="3"/>
<circle cx="1168.513" cy="2780.000" r="14.000" fill="white" stroke="black" stroke-width="3"/>
<circle cx="1307.077" cy="2700.000" r="14.000" fill="white" stroke="black" stroke-width="3"/>
<circle cx="1307.077" cy="2540.000" r="14.000" fill="white" stroke="black" stroke-width="3"/>
<circle cx="1445.641" cy="2460.000" r="14.000" fill="white" stroke="black" stroke-width="3"/>
<circle cx="1445.641" cy="2300.000" r="14.000" fill="white" stroke="black" stroke-width="3"/>
<circle cx="1584.205" cy="2220.000" r="14.000" fill="white" stroke="black" stroke-width="3"/>
<circle cx="1584.205" cy="2060.000" r="14.000" fill="white" stroke="black" stroke-width="3"/>
<circle cx="1722.769" cy="1980.000" r="14.000" fill="white" stroke="black" stroke-width="3"/>
<circle cx="1722.769" cy="1820.000" r="14.000" fill="white" stroke="black" stroke-width="3"/>
<circle cx="1861.333" cy="1740.000" r="14.000" fill="white" stroke="black" stroke-width="3"/>
<circle cx="1861.333" cy="1580.000" r="14.000" fill="white" stroke="black" stroke-width="3"/>
<circle cx="1999.897" cy="1500.000" r="14.000" fill="white" stroke="black" stroke-width="3"/>
<circle cx="1999.897" cy="1340.000" r="14.000" fill="white" stroke="black" stroke-width="3"/>
<circle cx="2138.461" cy="1260.000" r="14.000" fill="white" stroke="black" stroke-width="3"/>
<circle cx="2138.461" cy="1100.000" r="14.000" fill="white" stroke="black" stroke-width="3"/>
<circle cx="2277.025" cy="1020.000" r="14.000" fill="white" stroke="black" stroke-width="3"/>
<circle cx="2277.025" cy="860.000" r="14.000" fill="white" stroke="black" stroke-width="3"/>
<circle cx="2415.589" cy="780.000" r="14.000" fill="white" stroke="black" stroke-width="3"/>
<circle cx="2415.589" cy="620.000" r="14.000" fill="white" stroke="black" stroke-width="3"/>
<circle cx="2554.153" cy="540.000" r="14.000" fill="white" stroke="black" stroke-width="3"/>
<circle cx="2554.153" cy="380.000" r="14.000" fill="white" stroke="black" stroke-width="3"/>
<circle cx="2692.717" cy="300.000" r="14.000" fill="white" stroke="black" stroke-width="3"/>
<circle cx="2692.717" cy="140.000" r="14.000" fill="white" stroke="black" stroke-width="3"/>
<circle cx="2831.281" cy="60.000" r="14.000" fill="white" stroke="black" stroke-width="3"/>
<text x="60.000" y="3740.000"
font-family="monospace"
font-size="15"
font-weight="bold"
text-anchor="middle"
dominant-baseline="middle"
fill="black">1</text>
<text x="198.564" y="3660.000"
font-family="monospace"
font-size="15"
font-weight="bold"
text-anchor="middle"
dominant-baseline="middle"
fill="black">2</text>
<text x="198.564" y="3500.000"
font-family="monospace"
font-size="15"
font-weight="bold"
text-anchor="middle"
dominant-baseline="middle"
fill="black">3</text>
<text x="337.128" y="3420.000"
font-family="monospace"
font-size="15"
font-weight="bold"
text-anchor="middle"
dominant-baseline="middle"
fill="black">4</text>
<text x="337.128" y="3260.000"
font-family="monospace"
font-size="15"
font-weight="bold"
text-anchor="middle"
dominant-baseline="middle"
fill="black">5</text>
<text x="475.692" y="3180.000"
font-family="monospace"
font-size="15"
font-weight="bold"
text-anchor="middle"
dominant-baseline="middle"
fill="black">6</text>
<text x="475.692" y="3020.000"
font-family="monospace"
font-size="15"
font-weight="bold"
text-anchor="middle"
dominant-baseline="middle"
fill="black">7</text>
<text x="614.256" y="2940.000"
font-family="monospace"
font-size="15"
font-weight="bold"
text-anchor="middle"
dominant-baseline="middle"
fill="black">8</text>
<text x="614.256" y="2780.000"
font-family="monospace"
font-size="15"
font-weight="bold"
text-anchor="middle"
dominant-baseline="middle"
fill="black">9</text>
<text x="752.820" y="2700.000"
font-family="monospace"
font-size="15"
font-weight="bold"
text-anchor="middle"
dominant-baseline="middle"
fill="black">10</text>
<text x="752.820" y="2540.000"
font-family="monospace"
font-size="15"
font-weight="bold"
text-anchor="middle"
dominant-baseline="middle"
fill="black">11</text>
<text x="891.384" y="2460.000"
font-family="monospace"
font-size="15"
font-weight="bold"
text-anchor="middle"
dominant-baseline="middle"
fill="black">12</text>
<text x="891.384" y="2300.000"
font-family="monospace"
font-size="15"
font-weight="bold"
text-anchor="middle"
dominant-baseline="middle"
fill="black">13</text>
<text x="1029.948" y="2220.000"
font-family="monospace"
font-size="15"
font-weight="bold"
text-anchor="middle"
dominant-baseline="middle"
fill="black">14</text>
<text x="1029.948" y="2060.000"
font-family="monospace"
font-size="15"
font-weight="bold"
text-anchor="middle"
dominant-baseline="middle"
fill="black">15</text>
<text x="1168.513" y="1980.000"
font-family="monospace"
font-size="15"
font-weight="bold"
text-anchor="middle"
dominant-baseline="middle"
fill="black">16</text>
<text x="1168.513" y="1820.000"
font-family="monospace"
font-size="15"
font-weight="bold"
text-anchor="middle"
dominant-baseline="middle"
fill="black">17</text>
<text x="1307.077" y="1740.000"
font-family="monospace"
font-size="15"
font-weight="bold"
text-anchor="middle"
dominant-baseline="middle"
fill="black">18</text>
<text x="1307.077" y="1580.000"
font-family="monospace"
font-size="15"
font-weight="bold"
text-anchor="middle"
dominant-baseline="middle"
fill="black">19</text>
<text x="1445.641" y="1500.000"
font-family="monospace"
font-size="15"
font-weight="bold"
text-anchor="middle"
dominant-baseline="middle"
fill="black">20</text>
<text x="1445.641" y="1340.000"
font-family="monospace"
font-size="15"
font-weight="bold"
text-anchor="middle"
dominant-baseline="middle"
fill="black">21</text>
<text x="1584.205" y="1260.000"
font-family="monospace"
font-size="15"
font-weight="bold"
text-anchor="middle"
dominant-baseline="middle"
fill="black">22</text>
<text x="1584.205" y="1100.000"
font-family="monospace"
font-size="15"
font-weight="bold"
text-anchor="middle"
dominant-baseline="middle"
fill="black">23</text>
<text x="1722.769" y="1020.000"
font-family="monospace"
font-size="15"
font-weight="bold"
text-anchor="middle"
dominant-baseline="middle"
fill="black">24</text>
<text x="1722.769" y="860.000"
font-family="monospace"
font-size="15"
font-weight="bold"
text-anchor="middle"
dominant-baseline="middle"
fill="black">25</text>
<text x="1861.333" y="780.000"
font-family="monospace"
font-size="15"
font-weight="bold"
text-anchor="middle"
dominant-baseline="middle"
fill="black">26</text>
<text x="1861.333" y="620.000"
font-family="monospace"
font-size="15"
font-weight="bold"
text-anchor="middle"
dominant-baseline="middle"
fill="black">27</text>
<text x="1999.897" y="540.000"
font-family="monospace"
font-size="15"
font-weight="bold"
text-anchor="middle"
dominant-baseline="middle"
fill="black">28</text>
<text x="1999.897" y="380.000"
font-family="monospace"
font-size="15"
font-weight="bold"
text-anchor="middle"
dominant-baseline="middle"
fill="black">29</text>
<text x="2138.461" y="300.000"
font-family="monospace"
font-size="15"
font-weight="bold"
text-anchor="middle"
dominant-baseline="middle"
fill="black">30</text>
<text x="2138.461" y="140.000"
font-family="monospace"
font-size="15"
font-weight="bold"
text-anchor="middle"
dominant-baseline="middle"
fill="black">31</text>
<text x="2277.025" y="60.000"
font-family="monospace"
font-size="15"
font-weight="bold"
text-anchor="middle"
dominant-baseline="middle"
fill="black">32</text>
<text x="337.128" y="3740.000"
font-family="monospace"
font-size="15"
font-weight="bold"
text-anchor="middle"
dominant-baseline="middle"
fill="black">33</text>
<text x="475.692" y="3660.000"
font-family="monospace"
font-size="15"
font-weight="bold"
text-anchor="middle"
dominant-baseline="middle"
fill="black">34</text>
<text x="475.692" y="3500.000"
font-family="monospace"
font-size="15"
font-weight="bold"
text-anchor="middle"
dominant-baseline="middle"
fill="black">35</text>
<text x="614.256" y="3420.000"
font-family="monospace"
font-size="15"
font-weight="bold"
text-anchor="middle"
dominant-baseline="middle"
fill="black">36</text>
<text x="614.256" y="3260.000"
font-family="monospace"
font-size="15"
font-weight="bold"
text-anchor="middle"
dominant-baseline="middle"
fill="black">37</text>
<text x="752.820" y="3180.000"
font-family="monospace"
font-size="15"
font-weight="bold"
text-anchor="middle"
dominant-baseline="middle"
fill="black">38</text>
<text x="752.820" y="3020.000"
font-family="monospace"
font-size="15"
font-weight="bold"
text-anchor="middle"
dominant-baseline="middle"
fill="black">39</text>
<text x="891.384" y="2940.000"
font-family="monospace"
font-size="15"
font-weight="bold"
text-anchor="middle"
dominant-baseline="middle"
fill="black">40</text>
<text x="891.384" y="2780.000"
font-family="monospace"
font-size="15"
font-weight="bold"
text-anchor="middle"
dominant-baseline="middle"
fill="black">41</text>
<text x="1029.948" y="2700.000"
font-family="monospace"
font-size="15"
font-weight="bold"
text-anchor="middle"
dominant-baseline="middle"
fill="black">42</text>
<text x="1029.948" y="2540.000"
font-family="monospace"
font-size="15"
font-weight="bold"
text-anchor="middle"
dominant-baseline="middle"
fill="black">43</text>
<text x="1168.513" y="2460.000"
font-family="monospace"
font-size="15"
font-weight="bold"
text-anchor="middle"
dominant-baseline="middle"
fill="black">44</text>
<text x="1168.513" y="2300.000"
font-family="monospace"
font-size="15"
font-weight="bold"
text-anchor="middle"
dominant-baseline="middle"
fill="black">45</text>
<text x="1307.077" y="2220.000"
font-family="monospace"
font-size="15"
font-weight="bold"
text-anchor="middle"
dominant-baseline="middle"
fill="black">46</text>
<text x="1307.077" y="2060.000"
font-family="monospace"
font-size="15"
font-weight="bold"
text-anchor="middle"
dominant-baseline="middle"
fill="black">47</text>
<text x="1445.641" y="1980.000"
font-family="monospace"
font-size="15"
font-weight="bold"
text-anchor="middle"
dominant-baseline="middle"
fill="black">48</text>
<text x="1445.641" y="1820.000"
font-family="monospace"
font-size="15"
font-weight="bold"
text-anchor="middle"
dominant-baseline="middle"
fill="black">49</text>
<text x="1584.205" y="1740.000"
font-family="monospace"
font-size="15"
font-weight="bold"
text-anchor="middle"
dominant-baseline="middle"
fill="black">50</text>
<text x="1584.205" y="1580.000"
font-family="monospace"
font-size="15"
font-weight="bold"
text-anchor="middle"
dominant-baseline="middle"
fill="black">51</text>
<text x="1722.769" y="1500.000"
font-family="monospace"
font-size="15"
font-weight="bold"
text-anchor="middle"
dominant-baseline="middle"
fill="black">52</text>
<text x="1722.769" y="1340.000"
font-family="monospace"
font-size="15"
font-weight="bold"
text-anchor="middle"
dominant-baseline="middle"
fill="black">53</text>
<text x="1861.333" y="1260.000"
font-family="monospace"
font-size="15"
font-weight="bold"
text-anchor="middle"
dominant-baseline="middle"
fill="black">54</text>
<text x="1861.333" y="1100.000"
font-family="monospace"
font-size="15"
font-weight="bold"
text-anchor="middle"
dominant-baseline="middle"
fill="black">55</text>
<text x="1999.897" y="1020.000"
font-family="monospace"
font-size="15"
font-weight="bold"
text-anchor="middle"
dominant-baseline="middle"
fill="black">56</text>
<text x="1999.897" y="860.000"
font-family="monospace"
font-size="15"
font-weight="bold"
text-anchor="middle"
dominant-baseline="middle"
fill="black">57</text>
<text x="2138.461" y="780.000"
font-family="monospace"
font-size="15"
font-weight="bold"
text-anchor="middle"
dominant-baseline="middle"
fill="black">58</text>
<text x="2138.461" y="620.000"
font-family="monospace"
font-size="15"
font-weight="bold"
text-anchor="middle"
dominant-baseline="middle"
fill="black">59</text>
<text x="2277.025" y="540.000"
font-family="monospace"
font-size="15"
font-weight="bold"
text-anchor="middle"
dominant-baseline="middle"
fill="black">60</text>
<text x="2277.025" y="380.000"
font-family="monospace"
font-size="15"
font-weight="bold"
text-anchor="middle"
dominant-baseline="middle"
fill="black">61</text>
<text x="2415.589" y="300.000"
font-family="monospace"
font-size="15"
font-weight="bold"
text-anchor="middle"
dominant-baseline="middle"
fill="black">62</text>
<text x="2415.589" y="140.000"
font-family="monospace"
font-size="15"
font-weight="bold"
text-anchor="middle"
dominant-baseline="middle"
fill="black">63</text>
<text x="2554.153" y="60.000"
font-family="monospace"
font-size="15"
font-weight="bold"
text-anchor="middle"
dominant-baseline="middle"
fill="black">64</text>
<text x="614.256" y="3740.000"
font-family="monospace"
font-size="15"
font-weight="bold"
text-anchor="middle"
dominant-baseline="middle"
fill="black">65</text>
<text x="752.820" y="3660.000"
font-family="monospace"
font-size="15"
font-weight="bold"
text-anchor="middle"
dominant-baseline="middle"
fill="black">66</text>
<text x="752.820" y="3500.000"
font-family="monospace"
font-size="15"
font-weight="bold"
text-anchor="middle"
dominant-baseline="middle"
fill="black">67</text>
<text x="891.384" y="3420.000"
font-family="monospace"
font-size="15"
font-weight="bold"
text-anchor="middle"
dominant-baseline="middle"
fill="black">68</text>
<text x="891.384" y="3260.000"
font-family="monospace"
font-size="15"
font-weight="bold"
text-anchor="middle"
dominant-baseline="middle"
fill="black">69</text>
<text x="1029.948" y="3180.000"
font-family="monospace"
font-size="15"
font-weight="bold"
text-anchor="middle"
dominant-baseline="middle"
fill="black">70</text>
<text x="1029.948" y="3020.000"
font-family="monospace"
font-size="15"
font-weight="bold"
text-anchor="middle"
dominant-baseline="middle"
fill="black">71</text>
<text x="1168.513" y="2940.000"
font-family="monospace"
font-size="15"
font-weight="bold"
text-anchor="middle"
dominant-baseline="middle"
fill="black">72</text>
<text x="1168.513" y="2780.000"
font-family="monospace"
font-size="15"
font-weight="bold"
text-anchor="middle"
dominant-baseline="middle"
fill="black">73</text>
<text x="1307.077" y="2700.000"
font-family="monospace"
font-size="15"
font-weight="bold"
text-anchor="middle"
dominant-baseline="middle"
fill="black">74</text>
<text x="1307.077" y="2540.000"
font-family="monospace"
font-size="15"
font-weight="bold"
text-anchor="middle"
dominant-baseline="middle"
fill="black">75</text>
<text x="1445.641" y="2460.000"
font-family="monospace"
font-size="15"
font-weight="bold"
text-anchor="middle"
dominant-baseline="middle"
fill="black">76</text>
<text x="1445.641" y="2300.000"
font-family="monospace"
font-size="15"
font-weight="bold"
text-anchor="middle"
dominant-baseline="middle"
fill="black">77</text>
<text x="1584.205" y="2220.000"
font-family="monospace"
font-size="15"
font-weight="bold"
text-anchor="middle"
dominant-baseline="middle"
fill="black">78</text>
<text x="1584.205" y="2060.000"
font-family="monospace"
font-size="15"
font-weight="bold"
text-anchor="middle"
dominant-baseline="middle"
fill="black">79</text>
<text x="1722.769" y="1980.000"
font-family="monospace"
font-size="15"
font-weight="bold"
text-anchor="middle"
dominant-baseline="middle"
fill="black">80</text>
<text x="1722.769" y="1820.000"
font-family="monospace"
font-size="15"
font-weight="bold"
text-anchor="middle"
dominant-baseline="middle"
fill="black">81</text>
<text x="1861.333" y="1740.000"
font-family="monospace"
font-size="15"
font-weight="bold"
text-anchor="middle"
dominant-baseline="middle"
fill="black">82</text>
<text x="1861.333" y="1580.000"
font-family="monospace"
font-size="15"
font-weight="bold"
text-anchor="middle"
dominant-baseline="middle"
fill="black">83</text>
<text x="1999.897" y="1500.000"
font-family="monospace"
font-size="15"
font-weight="bold"
text-anchor="middle"
dominant-baseline="middle"
fill="black">84</text>
<text x="1999.897" y="1340.000"
font-family="monospace"
font-size="15"
font-weight="bold"
text-anchor="middle"
dominant-baseline="middle"
fill="black">85</text>
<text x="2138.461" y="1260.000"
font-family="monospace"
font-size="15"
font-weight="bold"
text-anchor="middle"
dominant-baseline="middle"
fill="black">86</text>
<text x="2138.461" y="1100.000"
font-family="monospace"
font-size="15"
font-weight="bold"
text-anchor="middle"
dominant-baseline="middle"
fill="black">87</text>
<text x="2277.025" y="1020.000"
font-family="monospace"
font-size="15"
font-weight="bold"
text-anchor="middle"
dominant-baseline="middle"
fill="black">88</text>
<text x="2277.025" y="860.000"
font-family="monospace"
font-size="15"
font-weight="bold"
text-anchor="middle"
dominant-baseline="middle"
fill="black">89</text>
<text x="2415.589" y="780.000"
font-family="monospace"
font-size="15"
font-weight="bold"
text-anchor="middle"
dominant-baseline="middle"
fill="black">90</text>
<text x="2415.589" y="620.000"
font-family="monospace"
font-size="15"
font-weight="bold"
text-anchor="middle"
dominant-baseline="middle"
fill="black">91</text>
<text x="2554.153" y="540.000"
font-family="monospace"
font-size="15"
font-weight="bold"
text-anchor="middle"
dominant-baseline="middle"
fill="black">92</text>
<text x="2554.153" y="380.000"
font-family="monospace"
font-size="15"
font-weight="bold"
text-anchor="middle"
dominant-baseline="middle"
fill="black">93</text>
<text x="2692.717" y="300.000"
font-family="monospace"
font-size="15"
font-weight="bold"
text-anchor="middle"
dominant-baseline="middle"
fill="black">94</text>
<text x="2692.717" y="140.000"
font-family="monospace"
font-size="15"
font-weight="bold"
text-anchor="middle"
dominant-baseline="middle"
fill="black">95</text>
<text x="2831.281" y="60.000"
font-family="monospace"
font-size="15"
font-weight="bold"
text-anchor="middle"
dominant-baseline="middle"
fill="black">96</text>
<line x1="60.0" y1="80.0" x2="100.0" y2="80.0"
stroke="blue" stroke-width="4" stroke-linecap="round"/><text x="115.0" y="80.0" font-family="monospace"
font-size="18" dominant-baseline="middle">x bond</text>
<line x1="60.0" y1="115.0" x2="100.0" y2="115.0"
stroke="red" stroke-width="4" stroke-linecap="round"/><text x="115.0" y="115.0" font-family="monospace"
font-size="18" dominant-baseline="middle">y bond</text>
<line x1="60.0" y1="150.0" x2="100.0" y2="150.0"
stroke="green" stroke-width="4" stroke-linecap="round"/><text x="115.0" y="150.0" font-family="monospace"
font-size="18" dominant-baseline="middle">z bond</text>
</svg>
